{
    "asset" : {
        "generator" : "Khronos glTF Blender I/O v1.6.16",
        "version" : "2.0"
    },
    "scene" : 0,
    "scenes" : [
        {
            "name" : "Scene",
            "nodes" : [
                0,
                2
            ]
        }
    ],
    "nodes" : [
        {
            "mesh" : 0,
            "name" : "Suzanne"
        },
        {
            "camera" : 0,
            "name" : "Camera_Orientation",
            "rotation" : [
                -0.7071067690849304,
                0,
                0,
                0.7071067690849304
            ]
        },
        {
            "children" : [
                1
            ],
            "name" : "Camera",
            "rotation" : [
                0.6502718925476074,
                -0.016757935285568237,
                0.004762535914778709,
                0.7595017552375793
            ],
            "translation" : [
                -0.20983116328716278,
                1.1149635314941406,
                7.138803958892822
            ]
        }
    ],
    "cameras" : [
        {
            "name" : "Camera",
            "perspective" : {
                "aspectRatio" : 1.7777777777777777,
                "yfov" : 0.39959652046304894,
                "zfar" : 100,
                "znear" : 0.10000000149011612
            },
            "type" : "perspective"
        }
    ],
    "materials" : [
        {
            "name" : "Suzanne",
            "pbrMetallicRoughness" : {
                "baseColorTexture" : {
                    "index" : 0
                },
                "metallicRoughnessTexture" : {
                    "index" : 1
                }
            }
        }
    ],
    "meshes" : [
        {
            "name" : "Suzanne",
            "primitives" : [
                {
                    "attributes" : {
                        "POSITION" : 0,
                        "NORMAL" : 1,
                        "TANGENT" : 2,
                        "TEXCOORD_0" : 3
                    },
                    "indices" : 4,
                    "material" : 0
                }
            ]
        }
    ],
    "textures" : [
        {
            "sampler" : 0,
            "source" : 0
        },
        {
            "sampler" : 0,
            "source" : 1
        }
    ],
    "images" : [
        {
            "mimeType" : "image/png",
            "name" : "Suzanne_BaseColor",
            "uri" : "Suzanne_BaseColor.png"
        },
        {
            "mimeType" : "image/png",
            "name" : "Suzanne_MetallicRoughness",
            "uri" : "Suzanne_MetallicRoughness.png"
        }
    ],
    "accessors" : [
        {
            "bufferView" : 0,
            "componentType" : 5126,
            "count" : 11808,
            "max" : [
                1.3369139432907104,
                0.9501950144767761,
                0.8256840109825134
            ],
            "min" : [
                -1.3369139432907104,
                -0.9746090173721313,
                -0.8007810115814209
            ],
            "type" : "VEC3"
        },
        {
            "bufferView" : 1,
            "componentType" : 5126,
            "count" : 11808,
            "type" : "VEC3"
        },
        {
            "bufferView" : 2,
            "componentType" : 5126,
            "count" : 11808,
            "type" : "VEC4"
        },
        {
            "bufferView" : 3,
            "componentType" : 5126,
            "count" : 11808,
            "type" : "VEC2"
        },
        {
            "bufferView" : 4,
            "componentType" : 5123,
            "count" : 11808,
            "type" : "SCALAR"
        }
    ],
    "bufferViews" : [
        {
            "buffer" : 0,
            "byteLength" : 141696,
            "byteOffset" : 0
        },
        {
            "buffer" : 0,
            "byteLength" : 141696,
            "byteOffset" : 141696
        },
        {
            "buffer" : 0,
            "byteLength" : 188928,
            "byteOffset" : 283392
        },
        {
            "buffer" : 0,
            "byteLength" : 94464,
            "byteOffset" : 472320
        },
        {
            "buffer" : 0,
            "byteLength" : 23616,
            "byteOffset" : 566784
        }
    ],
    "samplers" : [
        {
            "magFilter" : 9729,
            "minFilter" : 9987
        }
    ],
    "buffers" : [
        {
            "byteLength" : 590400,
            "uri" : "Suzanne.bin"
        }
    ]
}
